<?xml version="1.0" encoding="utf-8"?>
<!-- Generator: Adobe Illustrator 14.0.0, SVG Export Plug-In . SVG Version: 6.00 Build 43363)  -->
<!DOCTYPE svg PUBLIC "-//W3C//DTD SVG 1.1//EN" "http://www.w3.org/Graphics/SVG/1.1/DTD/svg11.dtd">
<svg version="1.1" xmlns="http://www.w3.org/2000/svg" xmlns:xlink="http://www.w3.org/1999/xlink" x="0px" y="0px" width="119px"
	 height="128px" viewBox="0 0 119 128" enable-background="new 0 0 119 128" xml:space="preserve">
<g id="Layer_1">
	<g>
		<polygon fill="#8F0000" stroke="#EEEEEE" stroke-width="3" points="119,116 59,128 0,116 0,0 119,0 		"/>
	</g>
</g>
<g id="Layer_2" display="none">
	
		<image display="inline" overflow="visible" opacity="0.3" width="107" height="121" xlink:href="../../../../../Users/Nada/Desktop/images.jpg"  transform="matrix(0.843 0 0 0.843 15.0002 11)">
	</image>
	<polygon display="inline" fill="none" stroke="#EEEEEE" stroke-width="0.25" points="21.833,21.833 21.833,22.833 32.166,60 
		42,107 69.5,99.333 88.833,92.667 98.333,87.833 98.333,71 94.167,71.667 94.5,83.333 81.667,89.167 72,92.333 62.167,95.167 
		54.5,97.5 48.166,98.833 41,64 47.666,62 50.5,67.167 54.166,70.833 58.333,74.333 63.5,76.667 67.667,77.333 70.167,77.167 
		70.5,79.667 59.5,82.5 59.5,90 86.833,81.833 86.833,75 76.667,77.333 76.5,75.167 79.5,73.167 82.667,70.333 85,66.5 86,63.167 
		86.167,59.5 86.167,55.833 86,53.833 89.833,53.167 92.833,64 96.833,63.167 95,57 92.333,48.833 89.333,42.167 86.333,37.5 
		83.167,37.667 87.833,46.667 84,47.167 82.5,45.167 81,43.167 79,40.833 76.5,38.667 74.167,37.167 71.667,35.667 68.833,34.333 
		66.333,34 63.5,33.833 62.667,32 71.5,31.5 68.667,27 43.5,28.5 45.333,33.333 57.166,32.333 57.833,34 56.333,34.5 53.666,35.5 
		52,37.167 49.833,39.167 48.333,41.667 47.166,44 46.666,46.667 46.166,48.833 46.333,51.667 46.333,54 46.166,54.833 
		39.333,56.167 29.833,25.333 36.333,24.5 41.5,23.833 47,23.333 53.166,23 58.666,22.833 65.5,23.333 70.5,23.833 74.833,27.167 
		77.333,29.667 78.833,31.5 82,32.333 78.833,28 74.167,23.833 67,20.667 61.5,19.667 54.833,19.667 39.5,19.667 27.666,20.5 	"/>
	<polygon display="inline" fill="none" stroke="#EEEEEE" stroke-width="0.25" points="50.5,53.167 50.5,50 51.333,47 52.833,44.167 
		54.5,41.833 56.666,39.833 59.5,38.333 63,50.667 	"/>
	<polygon display="inline" fill="none" stroke="#EEEEEE" stroke-width="0.25" points="65.833,37.667 70.167,49.167 80.167,48 
		79,45.75 77.333,43.417 75.667,42 73,40.167 71.5,39.333 69.167,38.333 	"/>
	<polygon display="inline" fill="none" stroke="#EEEEEE" stroke-width="0.25" points="65.833,58.5 53.166,61 54.166,63.333 
		55.666,65.333 57.5,66.833 59.5,68.5 61.667,69.667 64,70.667 66.5,71.667 68.667,71.667 	"/>
	<polygon display="inline" fill="none" stroke="#EEEEEE" stroke-width="0.25" points="73,57.167 82.5,55.333 82.5,60.333 81.333,64 
		79.5,67.167 77.75,69.167 75.667,70.333 	"/>
</g>
<g id="Layer_3">
	<g>
		<polygon fill="#FFFFFF" stroke="#EEEEEE" stroke-width="0.25" points="30.833,55.234 30.833,55.958 38.735,82.861 46.255,116.881 
			67.284,111.33 82.068,106.506 89.333,103.006 89.333,90.823 86.147,91.307 86.402,99.749 76.589,103.972 69.197,106.265 
			61.676,108.315 55.814,110.004 50.97,110.97 45.49,85.757 50.587,84.31 52.755,88.048 55.558,90.7 58.745,93.234 62.697,94.925 
			65.884,95.407 67.796,95.287 68.05,97.096 59.635,99.147 59.635,104.576 80.54,98.665 80.54,93.718 72.765,95.407 72.636,93.839 
			74.93,92.393 77.354,90.342 79.136,87.565 79.901,85.152 80.031,82.499 80.031,79.846 79.901,78.396 82.834,77.914 85.128,85.757 
			88.186,85.152 86.785,80.689 84.745,74.777 82.451,69.951 80.157,66.576 77.736,66.695 81.305,73.209 78.373,73.571 
			77.225,72.124 76.078,70.678 74.548,68.988 72.636,67.419 70.853,66.333 68.941,65.249 66.775,64.283 64.863,64.042 
			62.697,63.921 62.059,62.594 68.814,62.233 66.647,58.975 47.401,60.062 48.804,63.56 57.853,62.836 58.362,64.042 57.216,64.404 
			55.176,65.126 53.902,66.333 52.244,67.781 51.098,69.591 50.206,71.28 49.823,73.209 49.441,74.777 49.569,76.828 49.569,78.519 
			49.441,79.121 44.215,80.085 36.95,57.769 41.921,57.165 45.872,56.683 50.078,56.32 54.793,56.079 59,55.958 64.224,56.32 
			68.05,56.683 71.364,59.096 73.276,60.905 74.423,62.233 76.844,62.836 74.423,59.699 70.853,56.683 65.373,54.39 61.167,53.667 
			56.069,53.667 44.342,53.667 35.293,54.27 		"/>
		<polygon fill="#8F0000" stroke="#EEEEEE" stroke-width="0.25" points="52.755,78.638 52.755,76.347 53.392,74.176 54.539,72.124 
			55.815,70.435 57.471,68.988 59.636,67.901 62.314,76.828 		"/>
		<polygon fill="#8F0000" stroke="#EEEEEE" stroke-width="0.25" points="64.481,67.419 67.796,75.743 75.441,74.898 74.549,73.271 
			73.276,71.581 72.001,70.556 69.961,69.229 68.814,68.625 67.03,67.901 		"/>
		<polygon fill="#8F0000" stroke="#EEEEEE" stroke-width="0.25" points="64.481,82.499 54.794,84.31 55.558,85.997 56.706,87.443 
			58.107,88.53 59.636,89.737 61.296,90.581 63.078,91.307 64.991,92.029 66.647,92.029 		"/>
		<polygon fill="#8F0000" stroke="#EEEEEE" stroke-width="0.25" points="69.961,81.533 77.226,80.206 77.226,83.828 76.333,86.48 
			74.933,88.771 73.594,90.219 72.001,91.063 		"/>
	</g>
</g>
</svg>
